<?xml version="1.0" encoding="UTF-8"?>
<svg id="Layer_1" data-name="Layer 1" xmlns="http://www.w3.org/2000/svg" viewBox="0 0 1005.77 1007.6">
  <defs>
    <style>
      .cls-1 {
        fill: #231f20;
      }

      .cls-1, .cls-2 {
        stroke-width: 0px;
      }

      .cls-2 {
        fill: #fff;
      }
    </style>
  </defs>
  <path class="cls-1" d="M973.89,321.35c45.68,114.52,40.31,270.79-6,380-58.46,137.85-169.79,238.77-320,285-41.35,12.72-84.02,12.63-133,21-14.33-.67-28.67-1.33-43-2-16.67-1.67-33.34-3.33-50-5-46.96-10.34-89.38-23.04-128-40-135.62-59.55-228.08-170.16-273-321-16.89-56.72-28.64-142.61-14-212,7.13-33.8,13.29-67.96,25-98C87.39,186.97,187.63,86.98,329.89,31.35c31.64-12.37,68.06-18.91,104-26,20.33-1.67,40.67-3.33,61-5,242.97-4.63,410.62,149.57,479,321ZM894.89,663.35c39.55-92.9,38.67-223.55,0-316-61.47-146.94-193.31-265.7-402-265l-42,3c-26.97,4.91-53.59,8.13-77,17-133.46,50.54-218.63,135.39-270,268-8.53,22.02-12.18,46.95-17,72-5.29,27.47-6.88,65.67-2,94,5.23,30.37,5.05,56.18,13,82,38.65,125.54,119.56,219.08,234,269,47.37,20.66,78.5,25.89,140,36,14.67.67,29.33,1.33,44,2,34.06-5.7,66.6-4.17,96-13,135.26-40.6,230.51-125.71,283-249Z"/>
  <path class="cls-1" d="M900.89,485.35c31.33,81.78-87.89,142.21-138,166-15.92,7.56-45.74,25.35-63,27-1.67-1-3.33-2-5-3-4.29-20.23,6.29-45.4,11-65,4.05-16.86.65-35.89-2-51,1.33-9.67,2.67-19.33,4-29,2.78-15.63-4.29-34.09-9-45-46.17-107.02-285.29-89.43-368-27-53.52,40.4-30.43,111.34-13,175,3.73,13.63,17.89,39.9,12,58-5.31,16.31-32.43,7.48-44,2-43.03-20.38-83.87-40.16-119-68-16.37-12.97-29.78-32.85-41-51-59.5-96.27,37.4-185.44,111-212,22.33-6.33,44.67-12.67,67-19l33-6c28.85-13.55,40.62-48.81,71-62,23.33-5.67,46.67-11.33,70-17,7.67-.67,15.33-1.33,23-2,66.07-.88,110.05,7.04,138,43,13.38,17.22,19.48,44.01,38,56,17.3,11.2,46.66,9.8,67,17,48.4,17.14,139.47,67.23,157,113Z"/>
  <path class="cls-2" d="M894.89,347.35c38.67,92.45,39.55,223.1,0,316-52.49,123.29-147.74,208.4-283,249-29.4,8.83-61.94,7.3-96,13-14.67-.67-29.33-1.33-44-2-61.5-10.11-92.63-15.34-140-36-114.44-49.92-195.35-143.46-234-269-7.95-25.82-7.77-51.63-13-82-4.88-28.33-3.29-66.53,2-94,4.82-25.05,8.47-49.98,17-72,51.37-132.61,136.54-217.46,270-268,23.41-8.87,50.03-12.09,77-17l42-3c208.69-.7,340.53,118.06,402,265ZM762.89,651.35c50.11-23.79,169.33-84.22,138-166-17.53-45.77-108.6-95.86-157-113-20.34-7.2-49.7-5.8-67-17-18.52-11.99-24.62-38.78-38-56-27.95-35.96-71.93-43.88-138-43-7.67.67-15.33,1.33-23,2-23.33,5.67-46.67,11.33-70,17-30.38,13.19-42.15,48.45-71,62l-33,6c-22.33,6.33-44.67,12.67-67,19-73.6,26.56-170.5,115.73-111,212,11.22,18.15,24.63,38.03,41,51,35.13,27.84,75.97,47.62,119,68,11.57,5.48,38.69,14.31,44-2,5.89-18.1-8.27-44.37-12-58-17.43-63.66-40.52-134.6,13-175,82.71-62.43,321.83-80.02,368,27,4.71,10.91,11.78,29.37,9,45-1.33,9.67-2.67,19.33-4,29,2.65,15.11,6.05,34.14,2,51-4.71,19.6-15.29,44.77-11,65,1.67,1,3.33,2,5,3,17.26-1.65,47.08-19.44,63-27ZM608.89,575.35c48.96-36.21,24.16-105.34-41-108-17.02,6.71-29.17,4.99-39,18-5.49,7.27-10.05,24.88-19,28-8.67-.33-17.33-.67-26-1-8.67,1-17.33,2-26,3-14.98-4.46-21.09-29.2-37-36-42.47-18.14-76.6,14.71-84,46-10.5,44.38,36.91,86.54,83,66,23.51-10.48,28.95-39.23,36-67,14.78-9.04,33.25-9.73,51-4,18.5,29.05,13.01,68.99,59,68,19.75-.42,31.54-4.52,43-13ZM600.89,641.35c1.91-4.6.06-7.26-4-9-9.33.67-18.67,1.33-28,2-10-3.67-20-7.33-30-11-16.49-4.27-32.11.7-45,3-12.54,2.24-21.35-5.08-36-5-19.9,10.82-36.15,13.79-63,18-1,2.33-2,4.67-3,7,6.2,10.3,29.85,17.78,47,16,20.05-2.08,30.38-14.01,45-17,10.4-2.13,20.78,7.67,29,10,23.94,6.79,79.39,2.08,88-14Z"/>
  <path class="cls-1" d="M567.89,467.35c65.16,2.66,89.96,71.79,41,108-11.46,8.48-23.25,12.58-43,13-45.99.99-40.5-38.95-59-68-17.75-5.73-36.22-5.04-51,4-7.05,27.77-12.49,56.52-36,67-46.09,20.54-93.5-21.62-83-66,7.4-31.29,41.53-64.14,84-46,15.91,6.8,22.02,31.54,37,36,8.67-1,17.33-2,26-3,8.67.33,17.33.67,26,1,8.95-3.12,13.51-20.73,19-28,9.83-13.01,21.98-11.29,39-18Z"/>
  <path class="cls-1" d="M596.89,632.35c4.06,1.74,5.91,4.4,4,9-8.61,16.08-64.06,20.79-88,14-8.22-2.33-18.6-12.13-29-10-14.62,2.99-24.95,14.92-45,17-17.15,1.78-40.8-5.7-47-16,1-2.33,2-4.67,3-7,26.85-4.21,43.1-7.18,63-18,14.65-.08,23.46,7.24,36,5,12.89-2.3,28.51-7.27,45-3,10,3.67,20,7.33,30,11,9.33-.67,18.67-1.33,28-2Z"/>
</svg>