<?xml version="1.0" encoding="UTF-8"?>
<svg id="Layer_1" data-name="Layer 1" xmlns="http://www.w3.org/2000/svg" viewBox="0 0 1386.02 1388.54">
  <defs>
    <style>
      .cls-1 {
        fill: #231f20;
      }

      .cls-1, .cls-2 {
        stroke-width: 0px;
      }

      .cls-2 {
        fill: #fff;
      }
    </style>
  </defs>
  <path class="cls-2" d="M1342.18,442.81c62.96,157.84,55.56,373.22-8.27,523.74-80.57,189.99-234.01,329.09-441.04,392.8-56.99,17.53-115.8,17.41-183.31,28.94-19.75-.92-39.51-1.83-59.26-2.76-22.98-2.3-45.95-4.59-68.91-6.89-64.72-14.25-123.19-31.75-176.42-55.13-186.92-82.08-314.35-234.52-376.26-442.42-23.28-78.17-39.47-196.55-19.3-292.19,9.83-46.58,18.32-93.67,34.46-135.07C120.36,257.6,258.51,119.79,454.58,43.12c43.61-17.05,93.8-26.06,143.34-35.83,28.02-2.3,56.05-4.59,84.07-6.89,334.87-6.38,565.94,206.15,660.18,442.42ZM1233.29,914.17c54.51-128.04,53.3-308.11,0-435.53-84.72-202.52-266.43-366.2-554.06-365.24-19.3,1.38-38.59,2.76-57.89,4.13-37.17,6.77-73.86,11.21-106.13,23.43-183.94,69.66-301.33,186.6-372.13,369.37-11.76,30.35-16.79,64.71-23.43,99.23-7.29,37.86-9.48,90.51-2.76,129.56,7.21,41.86,6.96,77.43,17.92,113.02,53.27,173.03,164.78,301.95,322.51,370.75,65.29,28.47,108.19,35.68,192.96,49.62,20.22.92,40.42,1.83,60.64,2.76,46.94-7.86,91.79-5.75,132.31-17.92,186.42-55.96,317.7-173.26,390.05-343.19Z"/>
  <path class="cls-1" d="M1241.56,668.84c43.18,112.71-121.13,196-190.2,228.79-21.94,10.42-63.04,34.94-86.83,37.21-2.3-1.38-4.59-2.76-6.89-4.13-5.91-27.88,8.67-62.57,15.16-89.59,5.58-23.24.9-49.47-2.76-70.29,1.83-13.33,3.68-26.64,5.51-39.97,3.83-21.54-5.91-46.98-12.4-62.02-63.63-147.5-393.2-123.26-507.2-37.21-73.76,55.68-41.94,153.45-17.92,241.19,5.14,18.79,24.66,54.99,16.54,79.94-7.32,22.48-44.7,10.31-60.64,2.76-59.31-28.09-115.59-55.35-164.01-93.72-22.56-17.88-41.04-45.28-56.51-70.29-82.01-132.68,51.55-255.58,152.99-292.19,30.78-8.72,61.57-17.46,92.34-26.19,15.16-2.76,30.32-5.51,45.48-8.27,39.76-18.68,55.98-67.27,97.86-85.45,32.15-7.81,64.32-15.62,96.48-23.43,10.57-.92,21.13-1.83,31.7-2.76,91.06-1.21,151.68,9.7,190.2,59.26,18.44,23.73,26.85,60.66,52.37,77.18,23.84,15.44,64.31,13.51,92.34,23.43,66.71,23.62,192.23,92.66,216.39,155.74Z"/>
  <path class="cls-2" d="M1233.29,478.64c53.3,127.42,54.51,307.49,0,435.53-72.34,169.92-203.62,287.23-390.05,343.19-40.52,12.17-85.37,10.06-132.31,17.92-20.22-.92-40.42-1.83-60.64-2.76-84.76-13.93-127.67-21.14-192.96-49.62-157.73-68.8-269.24-197.72-322.51-370.75-10.96-35.59-10.71-71.16-17.92-113.02-6.73-39.05-4.53-91.7,2.76-129.56,6.64-34.53,11.67-68.89,23.43-99.23,70.8-182.77,188.19-299.72,372.13-369.37,32.26-12.23,68.95-16.66,106.13-23.43,19.3-1.38,38.59-2.76,57.89-4.13,287.63-.96,469.34,162.72,554.06,365.24ZM1051.37,897.63c69.06-32.79,233.38-116.08,190.2-228.79-24.16-63.08-149.68-132.12-216.39-155.74-28.03-9.92-68.5-7.99-92.34-23.43-25.53-16.53-33.93-53.45-52.37-77.18-38.52-49.56-99.14-60.48-190.2-59.26-10.57.92-21.13,1.83-31.7,2.76-32.15,7.81-64.32,15.62-96.48,23.43-41.87,18.18-58.09,66.78-97.86,85.45-15.16,2.76-30.32,5.51-45.48,8.27-30.78,8.72-61.57,17.46-92.34,26.19-101.44,36.61-234.99,159.51-152.99,292.19,15.46,25.02,33.95,52.41,56.51,70.29,48.42,38.37,104.71,65.63,164.01,93.72,15.95,7.55,53.32,19.72,60.64-2.76,8.12-24.95-11.4-61.15-16.54-79.94-24.02-87.74-55.85-185.51,17.92-241.19,114-86.04,443.56-110.29,507.2,37.21,6.49,15.04,16.24,40.48,12.4,62.02-1.83,13.33-3.68,26.64-5.51,39.97,3.65,20.83,8.34,47.05,2.76,70.29-6.49,27.01-21.07,61.7-15.16,89.59,2.3,1.38,4.59,2.76,6.89,4.13,23.79-2.27,64.89-26.79,86.83-37.21ZM839.11,792.89c67.48-49.91,33.3-145.19-56.51-148.85-23.46,9.25-40.2,6.88-53.75,24.81-7.57,10.02-13.85,34.29-26.19,38.59-11.95-.45-23.89-.92-35.83-1.38-11.95,1.38-23.89,2.76-35.83,4.13-20.65-6.15-29.07-40.25-51-49.62-58.53-25-105.57,20.27-115.77,63.4-14.47,61.17,50.87,119.27,114.4,90.96,32.4-14.44,39.9-54.07,49.62-92.34,20.37-12.46,45.83-13.41,70.29-5.51,25.5,40.04,17.93,95.09,81.32,93.72,27.22-.58,43.47-6.23,59.26-17.92ZM828.09,883.85c2.63-6.34.08-10.01-5.51-12.4-12.86.92-25.73,1.83-38.59,2.76-13.78-5.06-27.57-10.1-41.35-15.16-22.73-5.89-44.26.96-62.02,4.13-17.28,3.09-29.43-7-49.62-6.89-27.43,14.91-49.82,19.01-86.83,24.81-1.38,3.21-2.76,6.44-4.13,9.65,8.55,14.2,41.14,24.51,64.78,22.05,27.63-2.87,41.87-19.31,62.02-23.43,14.33-2.94,28.64,10.57,39.97,13.78,33,9.36,109.42,2.87,121.29-19.3Z"/>
  <path class="cls-1" d="M782.61,644.03c89.81,3.67,123.99,98.94,56.51,148.85-15.79,11.69-32.04,17.34-59.26,17.92-63.39,1.36-55.82-53.68-81.32-93.72-24.46-7.9-49.92-6.95-70.29,5.51-9.72,38.27-17.21,77.9-49.62,92.34-63.52,28.31-128.87-29.8-114.4-90.96,10.2-43.13,57.24-88.4,115.77-63.4,21.93,9.37,30.35,43.47,51,49.62,11.95-1.38,23.89-2.76,35.83-4.13,11.95.45,23.89.92,35.83,1.38,12.34-4.3,18.62-28.57,26.19-38.59,13.55-17.93,30.29-15.56,53.75-24.81Z"/>
  <path class="cls-1" d="M822.58,871.45c5.6,2.4,8.15,6.06,5.51,12.4-11.87,22.16-88.29,28.65-121.29,19.3-11.33-3.21-25.64-16.72-39.97-13.78-20.15,4.12-34.39,20.56-62.02,23.43-23.64,2.45-56.23-7.86-64.78-22.05,1.38-3.21,2.76-6.44,4.13-9.65,37.01-5.8,59.4-9.9,86.83-24.81,20.19-.11,32.33,9.98,49.62,6.89,17.77-3.17,39.29-10.02,62.02-4.13,13.78,5.06,27.57,10.1,41.35,15.16,12.86-.92,25.73-1.83,38.59-2.76Z"/>
</svg>