<?xml version="1.0" standalone="no"?>
<!DOCTYPE svg PUBLIC "-//W3C//DTD SVG 20010904//EN"
 "http://www.w3.org/TR/2001/REC-SVG-20010904/DTD/svg10.dtd">
<svg version="1.0" xmlns="http://www.w3.org/2000/svg"
 width="600.000000pt" height="472.000000pt" viewBox="0 0 600.000000 472.000000"
 preserveAspectRatio="xMidYMid meet">
<g transform="translate(0.000000,472.000000) scale(0.100000,-0.100000)"
fill="#000000" stroke="none">
<path d="M2960 4270 c-107 -4 -220 -13 -250 -20 -80 -17 -92 -19 -120 -25
-102 -20 -260 -60 -282 -72 -16 -7 -28 -11 -28 -8 0 4 -26 -8 -57 -24 -58 -31
-141 -98 -198 -158 -16 -18 -71 -75 -122 -126 -102 -104 -123 -115 -263 -142
-194 -38 -410 -95 -437 -118 -7 -5 -13 -6 -13 -2 0 4 -7 2 -15 -5 -8 -7 -15
-9 -15 -5 0 4 -7 2 -15 -5 -8 -7 -15 -10 -15 -7 0 25 -348 -145 -402 -196 -7
-6 -25 -18 -40 -26 -16 -8 -28 -18 -28 -23 0 -4 -5 -8 -12 -8 -12 0 -23 -9
-83 -67 -99 -96 -178 -202 -237 -318 -28 -55 -66 -122 -84 -148 -50 -73 -65
-141 -51 -232 22 -144 49 -295 58 -325 14 -44 77 -170 95 -188 8 -7 14 -17 14
-21 0 -5 10 -19 23 -33 12 -13 42 -51 67 -83 42 -55 158 -177 191 -200 8 -5
49 -36 92 -68 43 -32 82 -55 88 -52 5 4 8 1 7 -6 -2 -7 3 -13 10 -14 7 0 16
-5 20 -11 4 -6 23 -20 42 -31 19 -10 54 -31 77 -46 61 -39 318 -160 341 -160
6 0 12 -4 12 -9 0 -5 5 -6 10 -3 5 3 10 2 10 -2 0 -11 131 -68 148 -65 6 2 12
-1 12 -6 0 -12 102 -32 131 -26 84 19 129 77 129 167 0 30 -7 73 -15 96 -8 22
-12 41 -10 41 2 0 -1 15 -6 33 -6 17 -12 43 -15 57 -3 14 -25 100 -49 192 -24
92 -51 205 -60 250 -9 46 -18 92 -21 103 -3 11 -8 38 -10 60 -3 22 -9 42 -12
45 -4 3 -8 16 -9 30 -1 14 -7 57 -13 95 -19 121 6 230 75 322 44 58 132 153
142 153 4 0 20 11 35 25 15 14 31 25 36 25 4 0 17 8 28 18 10 9 37 25 59 34
22 9 81 32 130 52 50 20 109 46 133 56 23 11 51 20 61 20 10 0 21 3 25 7 4 4
13 8 19 8 14 0 155 34 177 42 20 8 49 13 83 16 15 1 27 5 27 8 0 3 9 5 21 4
11 -1 46 2 77 6 194 27 304 32 447 20 136 -12 200 -18 250 -25 41 -6 293 -71
330 -85 64 -25 170 -76 176 -84 4 -5 12 -6 19 -2 8 5 11 4 6 -3 -3 -6 3 -16
15 -22 12 -7 35 -24 51 -38 17 -15 31 -26 33 -25 2 1 21 -15 43 -35 22 -20 46
-42 53 -48 51 -41 93 -114 125 -216 10 -32 20 -58 24 -58 7 0 5 -170 -5 -280
-4 -52 -2 -109 4 -145 17 -91 13 -178 -15 -309 -13 -66 -26 -126 -28 -135 -1
-9 -8 -34 -14 -56 -6 -22 -13 -57 -16 -77 -3 -21 -7 -41 -8 -45 -6 -23 16 -84
39 -107 32 -32 93 -35 138 -8 17 10 68 36 115 56 47 21 104 46 127 57 24 10
46 19 50 19 19 0 312 153 307 161 -3 5 1 6 8 4 7 -3 34 7 58 23 25 15 75 42
113 60 37 18 67 37 67 43 0 5 6 9 13 9 13 0 189 176 297 298 100 111 149 211
166 337 4 28 8 57 10 67 5 28 -26 160 -50 213 -36 79 -122 195 -145 195 -5 0
-13 5 -17 12 -5 7 -2 9 7 3 16 -8 -13 18 -109 98 -38 31 -74 57 -81 57 -6 0
-11 5 -11 10 0 6 -7 10 -15 10 -8 0 -15 3 -15 8 0 4 -21 19 -47 32 -27 14 -52
30 -58 36 -39 43 -212 138 -350 195 -44 17 -87 38 -95 45 -14 12 -119 62 -138
65 -4 1 -11 3 -17 5 -43 14 -248 64 -280 68 -101 13 -187 64 -238 142 -17 27
-31 51 -32 54 -1 3 -13 29 -29 59 -59 113 -139 211 -226 276 -50 36 -240 140
-240 130 0 -3 -15 2 -32 11 -90 47 -198 56 -498 44z m436 -61 c81 -25 206 -86
284 -139 92 -63 179 -163 239 -278 103 -196 150 -238 306 -271 237 -51 336
-83 459 -145 67 -34 150 -74 186 -89 73 -30 324 -187 439 -274 88 -66 203
-179 244 -240 16 -22 40 -74 54 -114 64 -184 8 -387 -151 -552 -34 -34 -108
-112 -166 -172 -99 -104 -113 -114 -235 -179 -331 -175 -397 -208 -505 -249
-63 -24 -139 -58 -168 -76 -71 -42 -95 -46 -131 -25 -49 29 -54 61 -27 167 13
51 36 150 51 221 25 117 27 141 20 235 -8 107 -9 177 -3 376 3 103 1 117 -30
207 -44 129 -80 178 -202 279 -145 121 -191 150 -315 197 -78 30 -284 85 -355
96 -270 40 -535 40 -770 0 -14 -2 -45 -7 -70 -10 -170 -22 -482 -126 -657
-219 -197 -104 -335 -258 -378 -420 -21 -82 -19 -118 14 -284 17 -80 32 -162
35 -181 13 -80 19 -105 106 -435 11 -38 21 -81 23 -95 3 -14 10 -45 17 -69 35
-130 28 -192 -25 -227 -31 -20 -133 -15 -186 9 -19 9 -119 55 -224 102 -267
121 -513 272 -659 406 -63 57 -200 224 -253 307 -47 73 -80 166 -97 270 -8 48
-22 127 -30 175 -20 112 -11 157 49 248 25 36 63 104 86 150 48 96 143 223
222 295 140 128 369 254 605 332 135 45 393 111 492 126 110 17 143 39 287
193 183 194 273 254 438 288 44 9 114 24 155 35 142 35 196 42 390 50 253 10
350 6 436 -21z"/>
<path d="M3246 2824 c-106 -34 -186 -106 -261 -237 -31 -54 -52 -63 -126 -53
-28 4 -94 2 -148 -5 l-97 -12 -38 37 c-21 20 -36 36 -32 36 10 0 -11 26 -71
87 -29 29 -59 53 -68 53 -8 0 -15 4 -15 9 0 26 -234 66 -262 44 -7 -5 -26 -10
-42 -11 -45 -3 -126 -44 -178 -91 -41 -36 -112 -131 -113 -150 -1 -3 -8 -20
-17 -36 -22 -42 -41 -151 -33 -194 7 -40 35 -126 60 -185 18 -43 101 -136 121
-136 8 0 14 -4 14 -9 0 -4 35 -21 78 -37 66 -25 91 -28 177 -28 89 0 106 3
157 29 32 15 68 40 80 54 63 71 116 138 126 156 10 20 36 115 46 165 16 88 31
103 128 123 50 11 73 11 110 1 26 -6 49 -10 52 -7 9 9 35 -42 47 -92 28 -112
129 -292 188 -334 61 -43 101 -54 204 -53 117 2 162 12 244 58 93 52 227 189
238 242 2 12 8 29 14 40 16 30 5 176 -19 248 -40 120 -146 231 -263 276 -71
28 -232 34 -301 12z m318 -63 c80 -39 157 -120 198 -207 27 -59 31 -76 32
-167 1 -94 -1 -106 -26 -147 -44 -74 -138 -162 -217 -204 -63 -33 -86 -39
-170 -46 -182 -16 -249 22 -337 195 -43 83 -58 124 -69 189 -10 57 -40 81
-122 96 -60 11 -80 10 -146 -4 -91 -21 -124 -44 -133 -94 -3 -20 -15 -76 -26
-123 -17 -79 -24 -93 -75 -150 -30 -35 -62 -74 -70 -85 -27 -42 -107 -66 -212
-66 -110 0 -180 20 -256 72 -59 40 -88 85 -127 196 -29 85 -30 92 -21 162 20
136 117 280 224 329 61 29 163 46 224 39 124 -16 202 -67 291 -192 51 -71 71
-81 142 -68 26 5 103 9 172 9 69 0 130 3 137 8 6 4 32 43 57 87 96 166 180
213 369 206 86 -4 107 -8 161 -35z"/>
<path d="M2559 1785 c-31 -7 -98 -34 -150 -59 -76 -36 -106 -46 -155 -47 -78
-3 -100 -11 -118 -48 -29 -56 13 -107 121 -148 55 -20 90 -26 180 -29 126 -3
173 8 286 68 71 39 92 39 169 4 31 -14 80 -31 109 -37 99 -21 411 3 489 38 17
7 26 10 40 12 12 1 56 45 76 77 14 20 14 29 4 55 -20 48 -58 62 -136 48 -80
-14 -125 -7 -229 32 -48 19 -115 35 -170 42 -79 9 -102 8 -169 -8 -69 -16 -86
-17 -135 -6 -87 20 -151 22 -212 6z m194 -44 c67 -20 67 -20 149 1 74 19 91
20 168 11 48 -6 135 -28 194 -48 111 -39 129 -40 246 -20 86 15 94 -61 10
-102 -78 -38 -200 -57 -370 -58 -149 0 -158 1 -220 28 -131 58 -125 58 -245
-4 l-107 -54 -116 0 c-96 0 -129 4 -184 23 -76 26 -118 55 -118 81 0 31 22 41
95 41 64 0 81 4 166 46 157 76 219 87 332 55z"/>
</g>
</svg>
